<?xml version="1.0" encoding="utf-8"?>
<!-- Generator: Adobe Illustrator 21.0.0, SVG Export Plug-In . SVG Version: 6.00 Build 0)  -->
<svg version="1.1" id="Layer_1" xmlns="http://www.w3.org/2000/svg" xmlns:xlink="http://www.w3.org/1999/xlink" x="0px" y="0px"
	 width="1000px" height="1000px" viewBox="0 0 1000 1000" style="enable-background:new 0 0 1000 1000;" xml:space="preserve">
<style type="text/css">
	.st0{fill:#FFFFFF;}
</style>
<path class="st0" d="M433.3,473.6c2.3,0.8,4.7,1.3,7,1.3c4.2,0,8.3-1.3,11.8-3.8c5.5-3.9,8.6-10.3,8.4-17.1l-2.8-83.2l50.5-63.8
	c4.2-5.3,5.4-12.3,3.4-18.7c-2.1-6.4-7.2-11.4-13.6-13.2L418,252l-45.1-67.7c-3.7-5.6-10-9-16.8-9c-6.7,0-13,3.3-16.8,8.9
	l-46.7,68.9l-78.4,22c-6.5,1.8-11.6,6.7-13.7,13.1c-2.1,6.4-0.9,13.4,3.3,18.7l51.1,65.7l-3.3,81.3c-0.3,6.7,2.8,13.2,8.3,17.1
	c5.4,4,12.5,5,18.8,2.7l78.3-28.3L433.3,473.6z M293.2,425.4l2.4-58.6c0.2-4.8-1.3-9.5-4.2-13.2l-37.2-47.8l56.5-15.8
	c4.6-1.3,8.6-4.2,11.3-8.1l33.9-50.1l32.5,48.8c2.7,4,6.6,6.9,11.2,8.2l58.2,16.8l-36.4,46c-3,3.8-4.5,8.4-4.4,13.2l2,60.5l-55-20.4
	c-4.5-1.7-9.4-1.7-13.9-0.1L293.2,425.4z M256,855.5c0,11.2-9,20.2-20.2,20.2H33.4c-11.2,0-20.2-9-20.2-20.2V45.8
	c0-11.2,9-20.2,20.2-20.2h198.1c11.2,0,20.2,9,20.2,20.2S242.6,66,231.5,66H53.6v769.3h182.2C247,835.3,256,844.3,256,855.5
	L256,855.5z M285.4,38.1c-7.9-7.9-7.9-20.7,0-28.6s20.7-7.9,28.6,0l8.4,8.4l8.4-8.4c7.9-7.9,20.7-7.9,28.6,0s7.9,20.7,0,28.6
	l-8.4,8.4l8.4,8.4c7.9,7.9,7.9,20.7,0,28.6s-20.7,7.9-28.6,0l-8.4-8.4l-8.4,8.4c-4,3.9-9.1,5.9-14.3,5.9c-5.2,0-10.3-2-14.3-5.9
	c-7.9-7.9-7.9-20.7,0-28.6l8.4-8.4L285.4,38.1z M391,45.8c0-11.2,9-20.2,20.2-20.2h431.9c11.2,0,20.2,9,20.2,20.2v440.5
	c0,11.2-9,20.2-20.2,20.2s-20.2-9-20.2-20.2V66H411.2C400,66,391,57,391,45.8L391,45.8z M234,143.1l-17,17l17,17
	c7.9,7.9,7.9,20.7,0,28.6c-3.9,3.9-9.1,5.9-14.3,5.9s-10.3-2-14.3-5.9l-17-17l-17,17c-7.9,7.9-20.7,7.9-28.6,0
	c-7.9-7.9-7.9-20.7,0-28.6l17-17l-17-17c-7.9-7.9-7.9-20.7,0-28.6s20.7-7.9,28.6,0l17,17l17-17c7.9-7.9,20.7-7.9,28.6,0
	C241.9,122.5,241.9,135.2,234,143.1L234,143.1z M427.8,807.1c0,11.2-9,20.2-20.2,20.2h-6.4c-11.2,0-20.2-9-20.2-20.2
	s9-20.2,20.2-20.2h6.4C418.8,786.9,427.8,796,427.8,807.1L427.8,807.1z M985.5,626.9L896,960.8c-5.3,19.8-23.2,32.8-42.8,32.8
	c-3.8,0-7.6-0.5-11.4-1.5L795,979.6c-10.8-2.9-17.2-14-14.3-24.8s14-17.2,24.8-14.3l46.8,12.5c2,0.5,4.2-0.7,4.7-2.7l89.5-333.9
	c0.5-2-0.7-4.2-2.7-4.7l-106-28.4c-10.8-2.9-17.2-14-14.3-24.8s14-17.2,24.8-14.3l106,28.4C977.8,579,991.8,603.3,985.5,626.9
	L985.5,626.9z M634.1,790.2c1.1-1.1,2.1-2.1,3.1-3.2c13.6-15.1,21-34.5,21-54.8c0-45.2-36.7-81.9-81.9-81.9
	c-46.1,0-81.9,44-81.9,81.9c0,29.5,10.7,46.7,23.9,58.6l-66.6,173.1c-2.4,6.2-1.6,13.2,2.2,18.7c3.8,5.5,10,8.8,16.7,8.8h211.5
	c6.7,0,12.9-3.3,16.7-8.8s4.6-12.5,2.2-18.7L634.1,790.2z M500,950.8l42.3-109.9l19.2-49.8c3.4-8.9,0.2-19-7.8-24.2
	c-13-8.5-18.8-15.5-18.8-34.7c0-16.4,18.6-41.5,41.5-41.5s41.5,18.6,41.5,41.5c0,10.3-3.8,20.1-10.6,27.7c-2.4,2.7-5.2,5-8.2,7
	c-8,5.2-11.2,15.3-7.8,24.2l61.5,159.7H500z M789.4,888.7c0,24.4-19.9,44.3-44.3,44.3c-11.2,0-20.2-9.1-20.2-20.2
	c0-11.2,9-20.2,20.2-20.2c2.1,0,3.8-1.8,3.8-3.8V543.1c0-2.1-1.8-3.9-3.8-3.9h-260c-2.1,0-3.8,1.8-3.8,3.9v107.6
	c0,11.2-9,20.2-20.2,20.2s-20.2-9-20.2-20.2V543.1c0-24.4,19.9-44.3,44.3-44.3h260c24.4,0,44.3,19.9,44.3,44.3L789.4,888.7
	L789.4,888.7z M427.8,888.5c0,11.2-9,20.2-20.2,20.2h-6.4c-11.2,0-20.2-9-20.2-20.2s9-20.2,20.2-20.2h6.4
	C418.8,868.2,427.8,877.3,427.8,888.5L427.8,888.5z M444.1,744.8H342c-2.1,0-3.8,1.8-3.8,3.8V947c0,2.1,1.8,3.9,3.8,3.9h61.6
	c11.2,0,20.2,9,20.2,20.2s-9.1,20.2-20.2,20.2H342c-24.4,0-44.3-19.9-44.3-44.3V748.6c0-24.4,19.9-44.3,44.3-44.3h102.2
	c11.2,0,20.2,9,20.2,20.2C464.4,735.7,455.3,744.8,444.1,744.8L444.1,744.8z"/>
</svg>
